<?xml version="1.0" encoding="UTF-8" standalone="no"?><svg xmlns="http://www.w3.org/2000/svg" xmlns:xlink="http://www.w3.org/1999/xlink" contentScriptType="text/ecmascript" zoomAndPan="magnify" contentStyleType="text/css" stroke-linecap="round" version="1" width="204" stroke-miterlimit="1.5" clip-rule="evenodd" fill="#000000" preserveAspectRatio="xMidYMid meet" viewBox="0.1 0.2 204.3 336.0" height="336" stroke-linejoin="round" fill-rule="evenodd"><g><g id="change1_2"><path fill="#ffe202" d="M35.087,156.025l14.375,157.994c33.616,17.609 67.368,16.958 98.425,-1.274l9.6,-159.36l-122.4,2.64Z"/></g><clipPath id="a"><path d="M35.087,156.025l14.375,157.994c33.616,17.609 67.368,16.958 98.425,-1.274l9.6,-159.36l-122.4,2.64Z"/></clipPath><g fill="#c3ae0e" clip-path="url(#a)"><g id="change2_1"><path d="M16.956,287.094c59.473,15.127 117.549,14.892 174.546,2.785l-10.213,63.134l-162.476,-13.927l-1.857,-51.992Z"/></g><g id="change2_2"><ellipse rx="5.106" ry="6.499" cx="63.842" cy="203.535"/><ellipse rx="3.971" ry="5.571" cx="100.258" cy="222.104"/><path d="M80.243,240.121c2.809,-0.22 5.23,1.387 5.402,3.585c0.172,2.199 -1.97,4.162 -4.78,4.382c-2.81,0.219 -5.23,-1.388 -5.402,-3.586c-0.172,-2.199 1.97,-4.162 4.78,-4.381Z"/><ellipse rx="4.874" ry="4.178" cx="85.428" cy="274.56"/><ellipse rx="5.106" ry="8.352" cx="109.335" cy="256.46"/><circle r="5.571" cx="135.796" cy="222.104"/><ellipse rx="6.035" ry="6.961" cx="61.985" cy="263.421"/><ellipse rx="4.178" ry="7.66" cx="118.62" cy="282.22"/><ellipse rx="6.035" ry="6.217" cx="61.985" cy="233.891"/><ellipse rx="6.499" ry="4.176" cx="129.297" cy="252.284"/><ellipse rx="5.313" ry="6.963" cx="90.973" cy="203.071"/><ellipse rx="3.25" ry="3.482" cx="132.546" cy="199.589"/></g></g><g id="change3_1"><path fill="#d2eaf6" d="M32.687,96.265l2.908,61.2c40.8,18.277 81.812,19.101 122.612,0.24l3.12,-63.84l-128.64,2.4Z"/></g><clipPath id="b"><path d="M32.687,96.265l2.908,61.2c40.8,18.277 81.812,19.101 122.612,0.24l3.12,-63.84l-128.64,2.4Z"/></clipPath><g fill="#fefaa3" id="change4_1" clip-path="url(#b)"><path d="M70.715,131.008c3.256,-8.949 14.583,-15.789 27.746,-15.789c13.163,-0 24.49,6.84 27.746,15.789c11.399,-2.238 24.531,2.123 31.112,11.164c6.582,9.042 4.777,20.242 -3.366,26.953c8.143,6.712 9.948,17.912 3.366,26.954c-6.581,9.041 -19.713,13.402 -31.112,11.164c-3.256,8.949 -14.583,15.789 -27.746,15.789c-13.163,-0 -24.49,-6.84 -27.746,-15.789c-11.399,2.238 -24.531,-2.123 -31.112,-11.164c-6.582,-9.042 -4.777,-20.242 3.366,-26.954c-8.143,-6.711 -9.948,-17.911 -3.366,-26.953c6.581,-9.041 19.713,-13.402 31.112,-11.164Z"/><path d="M28.353,137.088c1.806,-8.949 8.088,-15.789 15.388,-15.789c7.3,-0 13.582,6.84 15.388,15.789c6.322,-2.238 13.605,2.123 17.255,11.164c3.65,9.042 2.649,20.242 -1.867,26.953c4.516,6.712 5.517,17.912 1.867,26.954c-3.65,9.041 -10.933,13.402 -17.255,11.164c-1.806,8.949 -8.088,15.789 -15.388,15.789c-7.3,-0 -13.582,-6.84 -15.388,-15.789c-6.322,2.238 -13.605,-2.123 -17.255,-11.164c-3.65,-9.042 -2.649,-20.242 1.867,-26.954c-4.516,-6.711 -5.517,-17.911 -1.867,-26.953c3.65,-9.041 10.933,-13.402 17.255,-11.164Z"/><path d="M156.64,132.172c3.73,0.731 6.746,3.903 6.992,7.795c0.247,3.892 -2.346,7.419 -5.954,8.614c1.131,3.312 -0.412,7.308 -3.996,9.489c-3.583,2.18 -8.21,1.937 -11.114,-0.296c-2.599,2.582 -7.158,3.406 -10.988,1.694c-3.83,-1.711 -5.864,-5.481 -5.159,-8.91c-3.731,-0.73 -6.747,-3.902 -6.993,-7.794c-0.246,-3.892 2.346,-7.419 5.954,-8.614c-1.13,-3.312 0.412,-7.308 3.996,-9.489c3.584,-2.18 8.21,-1.937 11.114,0.296c2.599,-2.582 7.158,-3.406 10.988,-1.694c3.83,1.711 5.864,5.481 5.16,8.909Z"/></g><path fill="none" stroke-width="7.02" d="M163.649,88.004l-14.864,227.873c-33.107,13.727 -66.215,16.624 -99.323,-1.858l-19.508,-226.015l133.695,0Z" stroke="#d2eaf6"/><g id="change5_1"><path fill="#ffffff" d="M134.535,52.057l-17.389,94.087c-3.177,-5.077 -7.985,-6.692 -12.858,-2.377l17.39,-94.086l12.857,2.376Z"/></g><g id="change6_1"><ellipse fill="#dceff6" rx="66.847" cx="96.801" ry="20.949" cy="88.004" stroke="#bce1fc" stroke-width="7.02"/></g><g id="change5_2"><path fill="#ffffff" d="M136.889,39.325l-12.784,64.131l-11.926,1.311l11.852,-67.819l12.858,2.377Z"/></g><g id="change5_3"><path fill="#ffffff" d="M204.104,11.965l-72.762,34.616l-7.208,-9.59l74.234,-36.776c3.92,1.909 6.083,5.574 5.736,11.75Z"/></g><g><circle fill="none" stroke-width="7.02" r="31.473" cx="35.087" cy="295.556" stroke="#ffe200"/><g id="change1_1"><circle fill="#ffe202" stroke-width="7.02" r="30.121" cx="35.087" cy="295.556" stroke="#fefaa3"/></g><path fill="none" stroke-width="2.09" d="M35.087,265.435l-0,58.504" stroke="#fcf9ac"/><path fill="none" stroke-width="2.09" d="M4.966,295.556c0.338,-0.023 60.241,0 60.241,0" stroke="#fcf9ac"/><path fill="none" stroke-width="2.09" d="M55.813,274.045l-41.452,41.284" stroke="#fcf9ac"/><path fill="none" stroke-width="2.09" d="M14.361,274.045c0.255,0.223 41.365,42.597 41.365,42.597" stroke="#fcf9ac"/></g></g></svg>