<?xml version="1.0" encoding="UTF-8" standalone="no"?><svg xmlns="http://www.w3.org/2000/svg" xmlns:xlink="http://www.w3.org/1999/xlink" contentScriptType="text/ecmascript" zoomAndPan="magnify" text-rendering="geometricPrecision" contentStyleType="text/css" version="1" width="80.9" clip-rule="evenodd" fill="#000000" preserveAspectRatio="xMidYMid meet" viewBox="0.0 0.0 80.9 80.9" height="80.9" fill-rule="evenodd" image-rendering="optimizeQuality"><g><g><g id="change1_1"><circle fill="#4a73ee" r="40.44" cx="40.44" cy="40.44"/></g><g fill="#fefefe" id="change2_1"><path d="M23.52 28.79l36.45 0.17c1.34,0.01 2.49,0.57 3.29,1.64 0.8,1.07 1.03,2.33 0.66,3.62l-3.94 13.52c-0.52,1.78 -2.09,2.96 -3.94,2.96l-27.09 0c-2.26,0 -0.92,-1.92 -1.5,-4.11l-3.29 -12.54c-0.47,-1.78 -3.88,-4.46 -1.95,-5.05 0.44,-0.14 0.88,-0.21 1.31,-0.21z"/><path d="M56.55 52.84c1.13,0 2.05,0.92 2.05,2.05 0,1.13 -0.92,2.05 -2.05,2.05l-27.81 0c-1.02,0 -1.86,-0.73 -2.03,-1.7l-8.11 -31.16 -3.73 0c-1.13,0 -2.05,-0.92 -2.05,-2.05 0,-1.14 0.92,-2.06 2.05,-2.06l5.31 0 0 0.01c0.91,0 1.74,0.61 1.98,1.53l8.16 31.33 26.23 0z" fill-rule="nonzero"/><circle r="3.08" cx="34.34" cy="62.31"/><circle r="3.08" cx="51.37" cy="62.31"/></g></g></g></svg>