<?xml version="1.0" encoding="UTF-8" standalone="no"?><svg xmlns="http://www.w3.org/2000/svg" xmlns:xlink="http://www.w3.org/1999/xlink" contentScriptType="text/ecmascript" fill="#000000" width="500" zoomAndPan="magnify" contentStyleType="text/css" viewBox="0.0 0.0 500.0 510.9" height="511" preserveAspectRatio="xMidYMid meet" version="1"><g><g id="change1_1"><circle fill="#bf8800" r="249.99" cx="249.99" cy="260.88"/></g><g id="change2_1"><path fill="#ffdc07" d="M249.99,0C111.92,0,0,111.92,0,249.99s111.92,249.99,249.99,249.99,249.99-111.93,249.99-249.99S388.05,0,249.99,0ZM461.14,257.28c-3.81,113.23-96.75,203.89-210.94,204-14.41,0-28.49-1.42-42.1-4.16-41.7-8.38-78.97-29.05-107.85-58.07-10.38-10.43-19.68-21.93-27.71-34.34-14.68-22.65-25.13-48.28-30.25-75.79-1.89-10.17-3.05-20.6-3.43-31.22-.11-2.49-.16-4.98-.16-7.5-.12-116.7,94.38-211.38,211.08-211.5,14.11-.01,27.89,1.35,41.23,3.98,27.41,5.39,52.91,16.08,75.4,30.95,12.32,8.15,23.73,17.56,34.06,28.03,28.74,29.15,49.07,66.63,57.05,108.49,2.46,12.83,3.75,26.08,3.76,39.63h0c0,2.52-.04,5.01-.14,7.5Z"/></g><g id="change2_2"><path fill="#ffdc07" d="M461.28,249.78h0c0,2.52-.04,5.01-.14,7.5-3.81,113.23-96.75,203.89-210.94,204-14.41,0-28.49-1.42-42.1-4.16-41.7-8.38-78.97-29.05-107.85-58.07-10.38-10.43-19.68-21.93-27.71-34.34-14.68-22.65-25.13-48.28-30.25-75.79-1.89-10.17-3.05-20.6-3.43-31.22-.11-2.49-.16-4.98-.16-7.5-.12-116.7,94.38-211.38,211.08-211.5,14.11-.01,27.89,1.35,41.23,3.98,27.41,5.39,52.91,16.08,75.4,30.95,12.32,8.15,23.73,17.56,34.06,28.03,28.74,29.15,49.07,66.63,57.05,108.49,2.46,12.83,3.75,26.08,3.76,39.63Z"/></g><g id="change3_1"><path fill="#e89e0c" d="M461.28,249.78h0c0,2.52-.04,5.01-.14,7.5-.54-15.28-2.71-30.15-6.34-44.43-10.25-40.45-32.18-76.25-61.99-103.59h0c-10.9-10.01-22.85-18.88-35.67-26.44-23.78-14.02-50.54-23.51-79.1-27.3-9.24-1.22-18.67-1.85-28.24-1.84-114.21.11-207.13,90.81-210.94,204.02-.11-2.49-.16-4.98-.16-7.5-.12-116.7,94.38-211.38,211.08-211.5,14.11-.01,27.89,1.35,41.23,3.98,27.41,5.39,52.91,16.08,75.4,30.95,12.32,8.15,23.73,17.56,34.06,28.03,28.74,29.15,49.07,66.63,57.05,108.49,2.46,12.83,3.75,26.08,3.76,39.63Z"/></g><g id="change4_1"><path fill="#f5b400" d="M461.13,257.28c-3.81,113.23-96.75,203.89-210.94,204-14.41,0-28.49-1.42-42.1-4.16-41.7-8.38-78.97-29.05-107.85-58.07-10.38-10.43-19.68-21.93-27.71-34.34-14.68-22.65-25.13-48.28-30.25-75.79-1.89-10.17-3.05-20.6-3.43-31.22,3.81-113.21,96.73-203.91,210.94-204.02,9.57-.01,19,.62,28.24,1.84,28.56,3.79,55.32,13.28,79.1,27.3,12.82,7.56,24.77,16.43,35.67,26.43h0c29.81,27.35,51.74,63.15,61.99,103.6,3.63,14.28,5.8,29.15,6.34,44.43Z"/></g><g fill="#ffdc07" opacity="0.31" id="change2_3"><path d="M457.6,210.15l-2.72,2.7-246.7,244.27c-41.7-8.38-78.97-29.05-107.85-58.07L392.9,109.26h0s7.66-7.6,7.66-7.6c28.74,29.15,49.07,66.63,57.05,108.49Z"/><path d="M366.5,73.63l-9.27,9.19L72.63,364.71c-14.68-22.65-25.13-48.28-30.25-75.79L278.13,55.52l12.97-12.84c27.41,5.39,52.91,16.08,75.4,30.95Z"/></g></g><g><g id="change5_1"><path fill="#f19004" d="M374.58,278.03c5.74,0,10.39-4.86,10.39-10.85h0c0-5.99-4.65-10.85-10.39-10.85h-15.52l20.9-65.98c4.88-15.4-4.34-32.03-17.76-32.03h0c-8.03,0-15.2,6.2-17.93,15.51l-24.2,82.51h-21.4l-23.34-79.06c-3.36-11.38-12.14-18.96-21.97-18.96h0c-9.81,0-18.58,7.55-21.95,18.9l-23.52,79.12h-21.4l-24.02-82.46c-2.72-9.33-9.9-15.56-17.94-15.56h-.77c-13.42,0-22.64,16.63-17.76,32.03l20.9,65.98h-15.52c-5.74,0-10.39,4.86-10.39,10.85h0c0,5.99,4.65,10.85,10.39,10.85h22.39l8.09,25.56h-30.49c-5.74,0-10.39,4.86-10.39,10.85s4.65,10.85,10.39,10.85h37.36l5.59,17.66c3.54,11.18,12.28,18.54,22.02,18.54s18.82-7.67,22.21-19.18l5.01-17.01h58.56l4.97,16.86c3.42,11.61,12.37,19.34,22.4,19.34s18.63-7.42,22.2-18.69l5.54-17.51h37.36c5.74,0,10.39-4.86,10.39-10.85s-4.65-10.85-10.39-10.85h-30.49l8.09-25.56h22.39ZM252.84,225.94l8.96,30.39h-17.91l8.96-30.39h-.01ZM201.44,278.03l-4.36,14.67-4.27-14.67h8.63ZM229.96,303.59l7.53-25.56h30.7l7.53,25.56h-45.77.01ZM309.41,292.7l-4.33-14.67h8.63l-4.3,14.67h0Z"/></g><g id="change6_1"><path fill="#fff068" d="M368.6,269.08c5.74,0,10.39-4.86,10.39-10.85h0c0-5.99-4.65-10.85-10.39-10.85h-15.52l20.9-65.98c4.88-15.4-4.34-32.03-17.76-32.03h0c-8.03,0-15.2,6.2-17.93,15.51l-24.2,82.51h-21.4l-23.34-79.06c-3.36-11.38-12.14-18.96-21.97-18.96h0c-9.81,0-18.58,7.55-21.95,18.9l-23.52,79.12h-21.4l-24.02-82.46c-2.72-9.33-9.9-15.56-17.94-15.56h-.77c-13.42,0-22.64,16.63-17.76,32.03l20.9,65.98h-15.52c-5.74,0-10.39,4.86-10.39,10.85h0c0,5.99,4.65,10.85,10.39,10.85h22.39l8.09,25.56h-30.49c-5.74,0-10.39,4.86-10.39,10.85s4.65,10.85,10.39,10.85h37.36l5.59,17.66c3.54,11.18,12.28,18.54,22.02,18.54s18.82-7.67,22.21-19.18l5.01-17.01h58.56l4.97,16.86c3.42,11.61,12.37,19.34,22.4,19.34s18.63-7.42,22.2-18.69l5.54-17.51h37.36c5.74,0,10.39-4.86,10.39-10.85s-4.65-10.85-10.39-10.85h-30.49l8.09-25.56h22.39ZM246.85,216.99l8.96,30.39h-17.91l8.96-30.39h-.01ZM195.45,269.08l-4.36,14.67-4.27-14.67h8.63ZM223.97,294.64l7.53-25.56h30.7l7.53,25.56h-45.77.01ZM303.42,283.75l-4.33-14.67h8.63l-4.3,14.67h0Z"/></g></g></svg>