<?xml version="1.0" encoding="UTF-8" standalone="no"?><svg xmlns="http://www.w3.org/2000/svg" xmlns:xlink="http://www.w3.org/1999/xlink" contentScriptType="text/ecmascript" zoomAndPan="magnify" contentStyleType="text/css" stroke-linecap="round" version="1" width="930" stroke-miterlimit="1.5" clip-rule="evenodd" fill="#000000" preserveAspectRatio="xMidYMid meet" viewBox="-100.6 -5.5 930.3 1455.4" height="1455" stroke-linejoin="round" fill-rule="evenodd"><g><g><g><g transform="matrix(1,0,0,1,-2096,-1500) matrix(1.43067,0,0,1.54267,0,0) matrix(0.698975,0,0,0.648228,0,0) matrix(1,0,0,1,1830,1643.11)"><g id="change1_1"><path fill="#f7d81d" d="M380.186,506.104L440.084,1164.41C580.151,1237.78 720.785,1235.07 850.186,1159.1L890.186,495.104L380.186,506.104Z"/></g><clipPath id="a"><path d="M380.186,506.104L440.084,1164.41C580.151,1237.78 720.785,1235.07 850.186,1159.1L890.186,495.104L380.186,506.104Z"/></clipPath><g clip-path="url(#a)"><g id="change2_1"><path fill="#e7b838" d="M304.642,1052.22C552.445,1115.26 794.428,1114.27 1031.91,1063.83L989.362,1326.89L312.379,1268.86L304.642,1052.22Z"/></g><g><g id="change2_3"><ellipse rx="21.277" ry="27.079" fill="#e7b838" cx="500" cy="704.062"/></g><g id="change2_4"><ellipse rx="16.546" ry="23.211" fill="#e7b838" cx="651.732" cy="781.431"/></g><g id="change2_2" transform="matrix(0.996962,-0.0778901,0.0778901,0.996962,-66.2753,47.0213)"><ellipse rx="21.277" ry="16.648" fill="#e7b838" cx="569.633" cy="873.1"/></g><g id="change2_5"><ellipse rx="20.309" ry="17.408" fill="#e7b838" cx="589.942" cy="1000"/></g><g id="change2_6"><ellipse rx="21.277" ry="34.8" fill="#e7b838" cx="689.555" cy="924.581"/></g><g id="change2_7"><circle fill="#e7b838" r="23.211" cx="799.807" cy="781.431"/></g><g id="change2_8"><ellipse rx="25.145" ry="29.005" fill="#e7b838" cx="492.263" cy="953.587"/></g><g id="change2_9"><ellipse rx="17.408" ry="31.915" fill="#e7b838" cx="728.24" cy="1031.91"/></g><g id="change2_10"><ellipse rx="25.145" ry="25.905" fill="#e7b838" cx="492.263" cy="830.547"/></g><g id="change2_11"><ellipse rx="27.079" ry="17.4" fill="#e7b838" cx="772.727" cy="907.181"/></g><g id="change2_12"><ellipse rx="22.138" ry="29.014" fill="#e7b838" cx="613.047" cy="702.128"/></g><g id="change2_13"><ellipse rx="13.54" ry="14.507" fill="#e7b838" cx="786.267" cy="687.621"/></g></g></g></g><g transform="matrix(1,0,0,1,-2096,-1500) matrix(1.43067,0,0,1.54267,0,0) matrix(0.698975,0,0,0.648228,0,0) matrix(1,0,0,1,1830,1643.11)"><g id="change3_1"><path fill="#d2eaf6" d="M370.186,257.104L382.305,512.104C552.305,588.257 723.186,591.69 893.186,513.104L906.186,247.104L370.186,257.104Z"/></g><clipPath id="b"><path d="M370.186,257.104L382.305,512.104C552.305,588.257 723.186,591.69 893.186,513.104L906.186,247.104L370.186,257.104Z"/></clipPath><g clip-path="url(#b)"><g id="change4_3"><path fill="#f9eb97" d="M544.224,325.921C559.236,281.248 611.461,247.104 672.147,247.104C732.833,247.104 785.058,281.248 800.07,325.921C852.626,314.75 913.17,336.519 943.513,381.653C973.856,426.787 965.536,482.7 927.993,516.202C965.536,549.703 973.856,605.617 943.513,650.751C913.17,695.885 852.626,717.654 800.07,706.483C785.058,751.156 732.833,785.3 672.147,785.3C611.461,785.3 559.236,751.156 544.224,706.483C491.668,717.654 431.124,695.885 400.781,650.751C370.438,605.617 378.758,549.703 416.301,516.202C378.758,482.7 370.438,426.787 400.781,381.653C431.124,336.519 491.668,314.75 544.224,325.921Z" transform="matrix(0.903735,0,0,0.834679,36.8025,129.826)"/></g><g id="change4_2"><path fill="#f9eb97" d="M544.224,325.921C559.236,281.248 611.461,247.104 672.147,247.104C732.833,247.104 785.058,281.248 800.07,325.921C852.626,314.75 913.17,336.519 943.513,381.653C973.856,426.787 965.536,482.7 927.993,516.202C965.536,549.703 973.856,605.617 943.513,650.751C913.17,695.885 852.626,717.654 800.07,706.483C785.058,751.156 732.833,785.3 672.147,785.3C611.461,785.3 559.236,751.156 544.224,706.483C491.668,717.654 431.124,695.885 400.781,650.751C370.438,605.617 378.758,549.703 416.301,516.202C378.758,482.7 370.438,426.787 400.781,381.653C431.124,336.519 491.668,314.75 544.224,325.921Z" transform="matrix(0.501217,0,0,0.834679,79.354,155.16)"/></g><g id="change4_1"><path fill="#f9eb97" d="M544.224,325.921C559.236,281.248 611.461,247.104 672.147,247.104C732.833,247.104 785.058,281.248 800.07,325.921C852.626,314.75 913.17,336.519 943.513,381.653C973.856,426.787 965.536,482.7 927.993,516.202C965.536,549.703 973.856,605.617 943.513,650.751C913.17,695.885 852.626,717.654 800.07,706.483C785.058,751.156 732.833,785.3 672.147,785.3C611.461,785.3 559.236,751.156 544.224,706.483C491.668,717.654 431.124,695.885 400.781,650.751C370.438,605.617 378.758,549.703 416.301,516.202C378.758,482.7 370.438,426.787 400.781,381.653C431.124,336.519 491.668,314.75 544.224,325.921Z" transform="matrix(0.0169073,0.267222,-0.342229,0.021653,988.995,254.233)"/></g></g></g><g><path fill="none" stroke-width="29.23" d="M915.861,222.685L853.93,1172.16C715.982,1229.35 578.033,1241.42 440.084,1164.41L358.801,222.685L915.861,222.685Z" transform="matrix(1,0,0,1,-2096,-1500) matrix(1.43067,0,0,1.54267,0,0) matrix(0.698975,0,0,0.648228,0,0) matrix(1,0,0,1,1830,1643.11)" stroke="#d2eaf6"/></g><g id="change5_2"><path fill="#ffffff" d="M692.667,83.301L692.667,481.967C675.808,463.573 654.882,460.596 638.186,481.967L638.186,83.301L692.667,83.301Z" transform="matrix(1,0,0,1,-2096,-1500) matrix(1.43067,0,0,1.54267,0,0) matrix(0.698975,0,0,0.648228,0,0) matrix(0.983345,0.181749,-0.181749,0.983345,1958.56,1508.21)"/></g><g id="change6_1" transform="matrix(1,0,0,1,-2096,-1500) matrix(1.43067,0,0,1.54267,0,0) matrix(0.698975,0,0,0.648228,0,0) matrix(1.04348,0,0,1.15713,1804.18,1512.3)"><ellipse fill="#dceff6" rx="266.925" cx="633.462" ry="75.435" cy="288.201" stroke="#bce1fc" stroke-width="26.53"/></g><g id="change5_1"><path fill="#ffffff" d="M692.667,83.301L688.855,304.406L640.983,316.097L638.186,83.301L692.667,83.301Z" transform="matrix(1,0,0,1,-2096,-1500) matrix(1.43067,0,0,1.54267,0,0) matrix(0.698975,0,0,0.648228,0,0) matrix(0.983345,0.181749,-0.223948,1.21166,1971.89,1436.13)"/></g><g id="change5_3"><path fill="#ffffff" d="M692.667,83.301L689.29,309.293L640.206,315.663L638.186,83.301C652.498,75.769 670.177,74.828 692.667,83.301Z" transform="matrix(1,0,0,1,-2096,-1500) matrix(1.43067,0,0,1.54267,0,0) matrix(0.698975,0,0,0.648228,0,0) matrix(0.438665,0.89865,-1.33496,0.651646,2721.78,872.212)"/></g><g transform="matrix(1,0,0,1,-2096,-1500) matrix(1.43067,0,0,1.54267,0,0) matrix(0.698975,0,0,0.648228,0,0) matrix(1.0513,-0.650831,0.73788,1.19191,-1926.13,1080.74)"><g id="change7_1"><path fill="#f3c70c" d="M2250.33,2329.6C2301.7,2328.74 2341.91,2367.97 2369.18,2417.99C2396.04,2467.29 2410.33,2527.08 2410.33,2569.34C2410.33,2645.28 2372.29,2701.48 2254.33,2706.93C2150.25,2711.75 2098.33,2645.28 2098.33,2569.34C2098.33,2484.19 2144.33,2331.36 2250.33,2329.6Z"/></g><clipPath id="c"><path d="M2250.33,2329.6C2301.7,2328.74 2341.91,2367.97 2369.18,2417.99C2396.04,2467.29 2410.33,2527.08 2410.33,2569.34C2410.33,2645.28 2372.29,2701.48 2254.33,2706.93C2150.25,2711.75 2098.33,2645.28 2098.33,2569.34C2098.33,2484.19 2144.33,2331.36 2250.33,2329.6Z"/></clipPath><g clip-path="url(#c)"><g><g id="change8_8"><path fill="#e88503" d="M3566.31,2369.5C3559.71,2372.71 3553.17,2376.03 3546.57,2379.24C3530.09,2387.28 3513.6,2395.29 3497.08,2403.23C3491.93,2405.7 3470.43,2416.03 3432.42,2433.54C3428.47,2435.36 3407.45,2445.05 3382.74,2455.68C3380.25,2456.76 3368.62,2461.77 3351.39,2468.82C3344.04,2471.82 3314.76,2483.79 3259.12,2505.21C3249.87,2508.78 3216.23,2521.73 3143.19,2549.05L3080.98,2572.16C3101.06,2562.88 3121.08,2553.46 3141.16,2544.17C3211.78,2511.51 3244.79,2496.62 3253.83,2492.54C3308.18,2468.03 3337.28,2455.63 3344.58,2452.52C3361.71,2445.22 3373.44,2440.47 3375.96,2439.45C3400.89,2429.36 3422.56,2421.22 3426.63,2419.69C3465.81,2404.97 3488.27,2396.94 3493.65,2395.02C3510.91,2388.85 3528.2,2382.75 3545.5,2376.68C3552.43,2374.25 3559.39,2371.93 3566.31,2369.5Z" transform="matrix(-0.289869,0.844159,-0.957066,-0.255672,5603.48,363.869) matrix(0.809779,0.079433,0.079433,0.96683,413.086,-172.497)"/></g><g id="change8_12"><path fill="#e88503" d="M3566.31,2369.5C3559.23,2372.87 3552.2,2376.34 3545.12,2379.72C3527.58,2388.09 3510.03,2396.44 3492.45,2404.74C3487.04,2407.29 3457.96,2421.01 3424.6,2436.1C3395.14,2449.43 3377.7,2456.93 3373.59,2458.7C3371.09,2459.77 3359.3,2464.84 3342.21,2471.86C3335.03,2474.8 3305.89,2486.76 3252.02,2507.65C3243.12,2511.11 3210.49,2523.76 3140.53,2550.15C3140.23,2550.26 3081.09,2572.43 3081.09,2572.43C3080.89,2572.46 3080.77,2572.3 3080.58,2572.33C3081.03,2572.12 3081.32,2571.69 3081.77,2571.48C3126.33,2550.67 3199.4,2517.43 3209.65,2512.77C3215.59,2510.07 3247.08,2495.74 3284.1,2479.41C3324.91,2461.42 3346.21,2452.56 3351.64,2450.3C3356.88,2448.12 3362.13,2445.97 3367.39,2443.84C3374.37,2441.01 3402.42,2429.63 3455.12,2409.91C3466.51,2405.65 3477.9,2401.42 3489.32,2397.25C3507.58,2390.58 3525.86,2383.97 3544.15,2377.38C3551.53,2374.72 3558.93,2372.16 3566.31,2369.5Z" transform="matrix(-0.289869,0.844159,-0.957066,-0.255672,5603.48,363.869) matrix(0.717457,0.117985,0.117985,0.950731,608.542,-318.116)"/></g><g id="change8_9"><path fill="#e88503" d="M3567.42,2369.03C3566.72,2369.37 3566.46,2369.94 3565.76,2370.27C3558.42,2373.79 3550.93,2377.09 3543.5,2380.48C3524.62,2389.07 3505.74,2397.65 3486.83,2406.2C3476.92,2410.68 3413.42,2439.4 3362.33,2461.2C3304.79,2485.75 3219.19,2519.42 3206.7,2524.33C3144.61,2548.75 3144.6,2548.69 3082.44,2572.85L3081.41,2573.25C3080.77,2573.38 3080.03,2573.65 3079.49,2573.65C3078.97,2573.65 3078.78,2573.38 3078.43,2573.23C3078.27,2573.17 3077.49,2572.85 3080.51,2571.09C3080.52,2571.09 3135.01,2546.72 3135.34,2546.57C3200.19,2517.7 3231.1,2504.18 3239.44,2500.53C3247.61,2496.97 3302.57,2472.93 3341.84,2456.62C3396.25,2434.02 3472.9,2404.6 3484.33,2400.21C3503.7,2392.78 3523.08,2385.39 3542.46,2378C3550.1,2375.1 3557.71,2372.09 3565.37,2369.34C3566.1,2369.08 3566.69,2369.3 3567.42,2369.03Z" transform="matrix(-0.289869,0.844159,-0.957066,-0.255672,5603.48,363.869) matrix(0.508069,0.205422,0.205422,0.914219,1088.86,-566.689)"/></g><g id="change8_2"><path fill="#e88503" d="M3566.31,2369.5C3559.68,2372.62 3553.09,2375.84 3546.46,2378.97C3529.9,2386.78 3513.33,2394.58 3496.73,2402.33C3490.22,2405.37 3454.52,2422.03 3414.96,2439.56C3396.9,2447.56 3384.7,2452.78 3382.05,2453.91C3326.01,2477.88 3232.08,2514.19 3218.97,2519.26C3150.52,2545.72 3150.49,2545.65 3081.92,2571.8C3081.61,2571.92 3081.08,2572.4 3080.98,2572.16C3080.98,2572.16 3141.1,2544.83 3141.39,2544.69C3166.12,2533.5 3190.86,2522.34 3215.62,2511.22C3228.43,2505.46 3320.29,2464.19 3376.74,2441.19C3401.65,2431.04 3423.24,2422.73 3427.3,2421.17C3466.34,2406.15 3488.69,2397.88 3494.04,2395.9C3511.22,2389.54 3528.42,2383.24 3545.62,2376.95C3552.51,2374.44 3559.43,2372.01 3566.31,2369.5Z" transform="matrix(-0.289869,0.844159,-0.957066,-0.255672,5603.48,363.869) matrix(0.793387,0.0862781,0.0862781,0.963972,479.103,-137.399)"/></g><g id="change8_4"><path fill="#e88503" d="M3566.31,2369.5C3558.41,2373.16 3550.54,2376.89 3542.64,2380.56C3523.27,2389.54 3503.89,2398.51 3484.49,2407.44C3473.17,2412.64 3396.38,2447.95 3342,2470.71C3302.76,2487.13 3247.91,2508.51 3239.7,2511.7C3231.4,2514.94 3200.46,2527 3135.72,2551.54L3080.98,2572.16C3098.72,2564.05 3116.39,2555.84 3134.13,2547.73C3196.95,2519.01 3227.42,2505.42 3235.56,2501.79C3243.61,2498.2 3297.37,2474.22 3336.64,2457.86C3391.05,2435.18 3470.14,2405.4 3481.81,2401.01C3501.79,2393.49 3521.8,2386.01 3541.8,2378.55C3549.96,2375.51 3558.15,2372.54 3566.31,2369.5Z" transform="matrix(-0.289869,0.844159,-0.957066,-0.255672,5603.48,363.869) matrix(0.664379,0.14015,0.14015,0.941476,811.538,-217.551)"/></g><g id="change8_10"><path fill="#e88503" d="M3569.81,2368.03C3569.88,2368.19 3570.27,2369.13 3565.98,2371.06C3525.65,2389.21 3525.66,2389.2 3485.23,2407.18C3475.16,2411.66 3410.19,2440.55 3358.78,2462.22C3300.87,2486.64 3216.6,2519.55 3204.2,2524.39C3143.06,2548.26 3143.05,2548.2 3081.86,2571.82C3081.56,2571.94 3081.02,2572.26 3080.98,2572.16C3080.98,2572.16 3134.45,2548.1 3134.73,2547.98C3198.38,2519.46 3228.9,2506.01 3237.11,2502.4C3245.2,2498.83 3299.38,2474.97 3338.6,2458.51C3392.94,2435.69 3470.97,2405.18 3482.51,2400.66C3523.72,2384.55 3523.72,2384.55 3564.97,2368.63C3569.36,2366.94 3569.75,2367.88 3569.81,2368.03Z" transform="matrix(-0.289869,0.844159,-0.957066,-0.255672,5603.48,363.869) matrix(0.443883,0.232225,0.232225,0.903027,1355.95,-400.468)"/></g><g id="change8_3"><path fill="#e88503" d="M3568.91,2368.62C3567.99,2369.37 3567.45,2370.23 3566.53,2370.98C3566.41,2371.08 3524.47,2386.64 3477.75,2405.34C3474.31,2406.72 3443.6,2418.97 3405.48,2434.82C3389.89,2441.3 3389.92,2441.36 3371.55,2449.09C3353.57,2456.64 3353.62,2456.72 3330.26,2466.68C3313.33,2473.91 3309.35,2475.66 3281.5,2487.3C3273.04,2490.83 3273.04,2490.83 3264.57,2494.34C3249.49,2500.58 3249.53,2500.65 3234.45,2506.91C3230.31,2508.63 3230.31,2508.63 3200.51,2521.13C3186.33,2527.08 3186.37,2527.14 3172.19,2533.11C3161.09,2537.79 3152.61,2541.34 3111.67,2559.24C3094.11,2566.91 3081.39,2572.66 3081.37,2572.66C3080.86,2572.74 3080.46,2572.6 3079.95,2572.68C3080.49,2572.23 3080.75,2571.72 3081.28,2571.26C3081.3,2571.25 3107.2,2556.32 3123.25,2547.53C3156.95,2529.05 3174.83,2519.87 3179.37,2517.54C3196.3,2508.85 3206.6,2503.64 3229.2,2492.7C3232.02,2491.33 3241.14,2486.92 3264.79,2476.05C3268.2,2474.48 3281.25,2468.68 3281.57,2468.54C3304.4,2458.56 3317.89,2453.19 3331.54,2447.74C3333.38,2447.01 3361.66,2436.01 3377.99,2430.02C3408.51,2418.82 3430.44,2411.15 3459.91,2401.27C3462.09,2400.54 3504.31,2386.5 3546.38,2373.87C3556.97,2370.69 3566.11,2368 3566.11,2368C3567.05,2368.21 3567.97,2368.42 3568.91,2368.62Z" transform="matrix(-0.289869,0.844159,-0.957066,-0.255672,5603.48,363.869) matrix(0.166308,-0.601736,0.930553,-0.166308,457.342,4910.67)"/></g><g id="change8_5"><path fill="#e88503" d="M3080.11,2572.62C3080.38,2572.35 3080.35,2572.07 3080.63,2571.79C3080.63,2571.79 3087.01,2567.99 3095.37,2563.12C3121.28,2548.03 3137.53,2539.18 3152.84,2530.96C3176.66,2518.16 3189.98,2511.43 3193.25,2509.77C3214.47,2499.04 3226.67,2493.13 3245.97,2484.03C3246.43,2483.81 3253.34,2480.45 3275.85,2470.36C3290.22,2463.92 3298.89,2460.16 3317.81,2452.33C3319.67,2451.56 3332.32,2446.47 3337.24,2444.57C3347.47,2440.62 3354.27,2437.96 3378.66,2429.14C3383.08,2427.54 3392.78,2423.93 3422.7,2413.78C3423.02,2413.68 3434.69,2409.64 3463.24,2400.47C3464.7,2400 3474.29,2396.85 3500.08,2388.97C3528.83,2380.19 3545.7,2375.33 3549.66,2374.19C3558.04,2371.77 3566.3,2369.42 3566.3,2369.42C3566.38,2369.44 3566.61,2369.43 3566.32,2369.57C3566.2,2369.63 3557.2,2373.14 3541.73,2379.32C3533.59,2382.57 3511.37,2391.26 3477.18,2405.31C3471.09,2407.82 3460.12,2412.21 3437.63,2421.57C3433.44,2423.32 3420.25,2428.68 3398.67,2437.8C3392.51,2440.4 3382.25,2444.56 3360.29,2453.91C3359.51,2454.25 3340.63,2462.15 3339.39,2462.67C3328.98,2466.96 3329,2466.99 3318.59,2471.25C3302.61,2477.78 3302.62,2477.8 3286.62,2484.26C3270.75,2490.66 3270.79,2490.74 3254.93,2497.19C3251.97,2498.39 3244.86,2501.28 3217.99,2512.42C3215.35,2513.52 3210.53,2515.52 3185.08,2526.26C3175.98,2530.1 3157.95,2537.69 3120.26,2554.62C3097.44,2564.86 3081.4,2572.52 3081.33,2572.53C3080.9,2572.63 3080.55,2572.52 3080.11,2572.62Z" transform="matrix(-0.289869,0.844159,-0.957066,-0.255672,5603.48,363.869) matrix(0.181715,-0.564841,0.924119,-0.181715,366.09,4845.41)"/></g><g id="change8_6"><path fill="#e88503" d="M3566.43,2368.95L3566.19,2370.04C3533.62,2381.17 3500.72,2392.59 3450.3,2411.78C3446.66,2413.16 3429.18,2419.81 3404.92,2429.46C3401.99,2430.62 3392.23,2434.5 3368.35,2444.27C3349.74,2451.88 3339.89,2456.13 3295.45,2474.89C3255.91,2491.59 3244.94,2496.38 3240.56,2498.29C3237.97,2499.43 3233.1,2501.38 3200.72,2515.73C3198.12,2516.89 3189.7,2520.62 3168.33,2530.34C3153.35,2537.15 3138.4,2544.15 3123.64,2551.28C3114.47,2555.7 3104.42,2560.4 3080.98,2572.16C3107.09,2555.71 3123.53,2546.02 3142.96,2534.95C3162.59,2523.76 3174.46,2517.41 3177.25,2515.91C3191.62,2508.22 3205.55,2500.88 3230.93,2488.4C3231.76,2487.99 3253.12,2477.65 3270.01,2470.05C3290.41,2460.88 3312.16,2451.52 3343.56,2439.61C3367.87,2430.38 3383.2,2424.91 3403.46,2417.94C3433.13,2407.73 3470.19,2395.7 3520.36,2381.47C3524.06,2380.42 3543.66,2374.86 3566.43,2368.95Z" transform="matrix(-0.289869,0.844159,-0.957066,-0.255672,5603.48,363.869) matrix(0.218605,-0.476498,0.908714,-0.218605,221.861,4666.24)"/></g><g id="change8_7"><path fill="#e88503" d="M3570.26,2367.64C3569.19,2368.93 3568.65,2370.27 3567.59,2371.57C3567.57,2371.59 3546.77,2382.29 3538.97,2386.22C3485.22,2413.32 3455.52,2427.36 3451.81,2429.13C3373.78,2466.43 3326.41,2485.72 3321.46,2487.78C3312.03,2491.7 3292.65,2499.31 3290.14,2500.3C3287.57,2501.31 3260.58,2511.59 3255.22,2513.56C3228.53,2523.35 3217.75,2527.2 3192.47,2535.96C3184.61,2538.68 3145.05,2551.98 3121.01,2559.62C3117.81,2560.64 3098.75,2566.69 3080.98,2572.16C3089.72,2568.49 3089.74,2568.54 3139.29,2547.44C3164.68,2536.62 3164.63,2536.52 3196.88,2522.61L3231.16,2507.78L3272.81,2489.78C3291.64,2481.64 3291.64,2481.66 3310.53,2473.64C3323.59,2468.09 3338.76,2461.87 3348.24,2457.94C3354.22,2455.46 3403.32,2435.4 3419.75,2428.6C3424.65,2426.57 3424.64,2426.56 3429.54,2424.53C3431.45,2423.74 3446.06,2417.77 3468.41,2408.4C3475.73,2405.33 3499.07,2395.72 3535.41,2380.12C3549.73,2373.98 3549.74,2374.01 3564.05,2367.85C3564.98,2367.45 3564.97,2367.42 3565.05,2367.42C3567.78,2367.33 3567.52,2367.73 3570.26,2367.64Z" transform="matrix(-0.289869,0.844159,-0.957066,-0.255672,5603.48,363.869) matrix(0.159078,-0.61905,0.933572,-0.159078,527.851,4929.45)"/></g><g id="change8_1"><path fill="#e88503" d="M3566.32,2369.49C3560.54,2372.65 3535.16,2386.68 3489.18,2410.53C3486.14,2412.1 3471.55,2419.76 3437.24,2436.81C3432.97,2438.93 3403.7,2453.18 3392.32,2458.49C3364.53,2471.45 3354.16,2476.05 3350.82,2477.53C3337.55,2483.41 3337.55,2483.4 3324.19,2489.08C3322.51,2489.79 3303.46,2497.75 3285.81,2504.51C3279.34,2506.99 3261.33,2513.85 3254.96,2516.16C3225.42,2526.88 3215.16,2530.33 3204.67,2533.89C3200.35,2535.35 3188.93,2539.33 3158.21,2549.04C3135.91,2556.09 3126.21,2558.98 3123.42,2559.81C3120.03,2560.83 3100.43,2566.66 3080.98,2572.16C3094.56,2566.7 3094.58,2566.75 3137.6,2548.98C3163.76,2538.17 3174.87,2533.29 3193.84,2525.27C3210.2,2518.35 3211.55,2517.68 3223.75,2512.51C3243.1,2504.3 3243.05,2504.19 3257.38,2498.12C3274.23,2490.98 3274.18,2490.89 3291.04,2483.75C3308.33,2476.42 3308.32,2476.41 3324.85,2469.57C3351.58,2458.51 3357.64,2456.31 3385.53,2444.88C3393.92,2441.43 3404.2,2437.39 3427.53,2427.76C3436.06,2424.24 3446.44,2420.07 3469.74,2410.35C3485.64,2403.71 3495.25,2399.93 3538.5,2381.41C3546.42,2378.01 3546.44,2378.05 3566.32,2369.49Z" transform="matrix(-0.289869,0.844159,-0.957066,-0.255672,5603.48,363.869) matrix(0.174986,-0.580955,0.926929,-0.174986,540.248,4818.64)"/></g><g id="change8_11"><path fill="#e88503" d="M3080.98,2572.16C3082.8,2571.45 3100.04,2564.82 3142.96,2547.43C3151.47,2543.98 3161.09,2540.13 3205.17,2521.68C3205.81,2521.41 3238.14,2507.82 3256.7,2499.87L3304.95,2479.29C3361.89,2454.96 3393.61,2442.6 3489.56,2401.58C3526.49,2385.79 3565.28,2368.64 3565.48,2368.58C3566.23,2368.36 3567.07,2368.01 3567.74,2367.93C3567.77,2367.93 3569.15,2368.14 3569.14,2368.15C3569.07,2368.48 3569.24,2368.76 3568.89,2369.16C3568.11,2370.05 3567.86,2370.04 3566.33,2370.84C3561.22,2373.5 3531.99,2388.83 3482.69,2413.26C3478.04,2415.56 3453.1,2427.76 3436.63,2435.56C3399.39,2453.19 3356.56,2473.06 3309.98,2491.86C3308.91,2492.29 3297.44,2497.02 3267.83,2508.42C3264.06,2509.87 3241.59,2518.37 3222.16,2525.36C3207.21,2530.73 3190.7,2536.65 3158.28,2547.49C3133.59,2555.75 3122.04,2559.37 3117.55,2560.79C3114.62,2561.72 3098.53,2566.82 3080.98,2572.16Z" transform="matrix(-0.289869,0.844159,-0.957066,-0.255672,5603.48,363.869) matrix(0.223448,-0.464901,0.906692,-0.223448,483.146,4538.26)"/></g></g></g><path fill="none" stroke-width="3.05" d="M2250.33,2329.6C2301.7,2328.74 2341.91,2367.97 2369.18,2417.99C2396.04,2467.29 2410.33,2527.08 2410.33,2569.34C2410.33,2645.28 2372.29,2701.48 2254.33,2706.93C2150.25,2711.75 2098.33,2645.28 2098.33,2569.34C2098.33,2484.19 2144.33,2331.36 2250.33,2329.6Z" stroke="#5ca753"/></g></g></g></g></svg>