<?xml version="1.0" encoding="UTF-8" standalone="no"?><svg xmlns="http://www.w3.org/2000/svg" xmlns:xlink="http://www.w3.org/1999/xlink" contentScriptType="text/ecmascript" fill="#000000" width="2910" zoomAndPan="magnify" contentStyleType="text/css" viewBox="16.0 23.1 2910.0 1383.9" height="1384" preserveAspectRatio="xMidYMid meet" version="1"><g id="change1_1"><path fill="#bbdef2" d="M804.06 -714.94H2137.94V2145.06H804.06z" transform="matrix(-1.836970e-16 1 -1 -1.836970e-16 2186.0581 -755.9419)"/></g><g id="change2_1"><path fill="#6abee2" d="M1164.06 -354.94H2497.94V1785.06H1164.06z" transform="matrix(-1.836970e-16 1 -1 -1.836970e-16 2546.0581 -1115.9419)"/></g><g id="change3_1"><path fill="#013c68" d="M2783.25,1204.75c-44.41-96.22-107.32-107.32-181.34-166.54c-74.02-59.21-66.61-140.63-84.88-162.05 s18.27-85.91,0-161.77c-6.58-27.31-23.33-47.76-42.06-62.79c9.93-24.09,15.92-55.09,15.92-88.95c0-76.65-30.65-138.78-68.46-138.78 c-7.12,0-13.98,2.21-20.44,6.29c0.02-1.48,0.08-2.95,0.08-4.44c0-137.96-81.19-249.8-181.34-249.8c-80.34,0-148.44,72-172.25,171.7 c-68.2,12.7-117.89,120.81-112.6,250.08c2.12,51.85,12.8,99.57,29.25,138.61c-8.33,66.8,20.31,121.82,3.71,141.28 c-18.27,21.42-10.87,102.83-84.88,162.05c-74.02,59.21-136.93,70.31-181.34,166.54c-44.41,96.22-36.14,157.69-36.14,157.69h598.66 v-1.45h554.25C2819.39,1362.44,2827.66,1300.97,2783.25,1204.75z"/></g><g id="change1_2"><path fill="#bbdef2" d="M2926,1407H16V23.12h2910V1407z M66,1357h2810V73.12H66V1357z"/></g><g fill="#013c68" id="change3_3"><path d="M221.73,1307.75v-150.02l-42.64,24.44l-16.12-27.04l62.66-34.84h29.38v187.46H221.73z"/><path d="M450.27,1228.45c0,26.69-5.63,47.06-16.9,61.1c-11.27,14.04-28.25,21.06-50.96,21.06 c-22.36,0-39.61-7.11-51.74-21.32c-12.13-14.21-18.2-34.49-18.2-60.84v-29.12c0-26.34,6.02-46.58,18.07-60.71 c12.05-14.12,29.08-21.19,51.09-21.19c22.19,0,39.17,7.06,50.96,21.19c11.79,14.13,17.68,34.37,17.68,60.71V1228.45z M416.73,1199.07c0-10.75-1-19.41-2.99-26c-2-6.58-4.59-11.66-7.8-15.21c-3.21-3.55-6.93-5.94-11.18-7.15 c-4.25-1.21-8.62-1.82-13.13-1.82c-4.33,0-8.62,0.61-12.87,1.82c-4.25,1.21-8.06,3.64-11.44,7.28c-3.38,3.64-6.11,8.75-8.19,15.34 c-2.08,6.59-3.12,15.17-3.12,25.74v29.64c0,10.75,1.08,19.42,3.25,26c2.17,6.59,4.98,11.7,8.45,15.34 c3.47,3.64,7.37,6.07,11.7,7.28c4.33,1.21,8.67,1.82,13,1.82c4.51,0,8.84-0.61,13-1.82c4.16-1.21,7.8-3.59,10.92-7.15 c3.12-3.55,5.63-8.62,7.54-15.21c1.91-6.59,2.86-15.34,2.86-26.26V1199.07z"/><path d="M617.19,1228.45c0,26.69-5.63,47.06-16.9,61.1c-11.27,14.04-28.25,21.06-50.96,21.06 c-22.36,0-39.61-7.11-51.74-21.32c-12.13-14.21-18.2-34.49-18.2-60.84v-29.12c0-26.34,6.02-46.58,18.07-60.71 c12.05-14.12,29.08-21.19,51.09-21.19c22.19,0,39.17,7.06,50.96,21.19c11.79,14.13,17.68,34.37,17.68,60.71V1228.45z M583.65,1199.07c0-10.75-1-19.41-2.99-26c-2-6.58-4.59-11.66-7.8-15.21c-3.21-3.55-6.93-5.94-11.18-7.15 c-4.25-1.21-8.62-1.82-13.13-1.82c-4.33,0-8.62,0.61-12.87,1.82c-4.25,1.21-8.06,3.64-11.44,7.28c-3.38,3.64-6.11,8.75-8.19,15.34 c-2.08,6.59-3.12,15.17-3.12,25.74v29.64c0,10.75,1.08,19.42,3.25,26c2.17,6.59,4.98,11.7,8.45,15.34 c3.47,3.64,7.37,6.07,11.7,7.28c4.33,1.21,8.67,1.82,13,1.82c4.51,0,8.84-0.61,13-1.82c4.16-1.21,7.8-3.59,10.92-7.15 c3.12-3.55,5.63-8.62,7.54-15.21c1.91-6.59,2.86-15.34,2.86-26.26V1199.07z"/><path d="M784.11,1228.45c0,26.69-5.63,47.06-16.9,61.1c-11.27,14.04-28.25,21.06-50.96,21.06 c-22.36,0-39.61-7.11-51.74-21.32c-12.13-14.21-18.2-34.49-18.2-60.84v-29.12c0-26.34,6.02-46.58,18.07-60.71 c12.05-14.12,29.08-21.19,51.09-21.19c22.19,0,39.17,7.06,50.96,21.19c11.79,14.13,17.68,34.37,17.68,60.71V1228.45z M750.57,1199.07c0-10.75-1-19.41-2.99-26c-2-6.58-4.59-11.66-7.8-15.21c-3.21-3.55-6.93-5.94-11.18-7.15 c-4.25-1.21-8.62-1.82-13.13-1.82c-4.33,0-8.62,0.61-12.87,1.82c-4.25,1.21-8.06,3.64-11.44,7.28c-3.38,3.64-6.11,8.75-8.19,15.34 c-2.08,6.59-3.12,15.17-3.12,25.74v29.64c0,10.75,1.08,19.42,3.25,26c2.17,6.59,4.98,11.7,8.45,15.34 c3.47,3.64,7.37,6.07,11.7,7.28c4.33,1.21,8.67,1.82,13,1.82c4.51,0,8.84-0.61,13-1.82c4.16-1.21,7.8-3.59,10.92-7.15 c3.12-3.55,5.63-8.62,7.54-15.21c1.91-6.59,2.86-15.34,2.86-26.26V1199.07z"/></g><g fill="#013c68" id="change3_4"><path d="M960.58,275.29h43.75v-23.84h29.17v23.84h41.44v24.77h-41.44v13.2c0,2.78,0.19,5.36,0.58,7.75 c0.38,2.39,1.16,4.63,2.31,6.71c1.16,2.08,2.7,4.21,4.63,6.37c1.93,2.16,4.43,4.4,7.52,6.71c4.94,3.7,10.19,7.49,15.74,11.34 c5.56,3.86,11.26,7.64,17.13,11.34l-15.51,20.6c-10.34-6.79-19.83-13.35-28.47-19.68c-4.94-3.55-8.88-6.6-11.81-9.14 c-2.93-2.55-4.63-4.43-5.09-5.67h-0.23c-0.46,1.39-2.24,3.59-5.32,6.6c-3.09,3.01-7.33,6.6-12.73,10.76 c-4.94,4.02-9.99,7.99-15.16,11.92c-5.17,3.93-10.69,7.91-16.55,11.92l-17.13-21.3c7.41-4.94,14.39-9.95,20.95-15.05 c6.56-5.09,12.31-9.8,17.25-14.12c4.01-3.55,7.14-7.52,9.38-11.92c2.24-4.4,3.36-9.45,3.36-15.16v-13.2h-43.75V275.29z M1022.85,441.27h111.12v25H993.45v-69.91h29.4V441.27z M1101.33,339.18h-33.57v-24.77h33.57v-61.12h29.17v154.18h-29.17V339.18z"/><path d="M1231.2,348.44c17.75,0,33.37-0.08,46.88-0.23c13.5-0.15,25.62-0.38,36.35-0.69 c10.72-0.31,20.33-0.69,28.82-1.16c8.49-0.46,16.51-1.08,24.08-1.85l2.08,24.31c-7.41,0.93-15.86,1.66-25.35,2.2 c-9.49,0.54-20.64,0.97-33.45,1.27v28.24h-28.94v-27.78c-7.56,0.16-15.51,0.23-23.84,0.23s-17.21,0-26.62,0V348.44z M1299.26,339.41c-7.72,0-14.86-0.93-21.41-2.78c-6.56-1.85-12.27-4.43-17.13-7.75c-4.86-3.32-8.68-7.33-11.46-12.04 c-2.78-4.71-4.17-9.84-4.17-15.39v-6.48c0-5.56,1.39-10.69,4.17-15.39c2.78-4.71,6.6-8.72,11.46-12.04 c4.86-3.32,10.57-5.9,17.13-7.75c6.56-1.85,13.69-2.78,21.41-2.78c7.56,0,14.66,0.93,21.3,2.78c6.63,1.85,12.38,4.44,17.25,7.75 c4.86,3.32,8.68,7.33,11.46,12.04c2.78,4.71,4.17,9.84,4.17,15.39v6.48c0,5.56-1.39,10.69-4.17,15.39 c-2.78,4.71-6.6,8.72-11.46,12.04c-4.86,3.32-10.61,5.9-17.25,7.75C1313.92,338.48,1306.82,339.41,1299.26,339.41z M1295.55,441.96 h117.37v25h-146.77v-58.11h29.4V441.96z M1299.26,280.84c-7.87,0-14.28,1.5-19.21,4.51c-4.94,3.01-7.41,6.75-7.41,11.23v3.24 c0,4.48,2.47,8.22,7.41,11.23c4.94,3.01,11.34,4.51,19.21,4.51s14.27-1.5,19.21-4.51c4.94-3.01,7.41-6.75,7.41-11.23v-3.24 c0-4.47-2.47-8.22-7.41-11.23C1313.53,282.35,1307.13,280.84,1299.26,280.84z M1337.69,379.92h42.6V253.29h29.17v166.21h-29.17 v-15.97h-42.6V379.92z"/></g><g fill="#013c68" id="change3_2"><path d="M2620.67,215.43h126.94l-20.68-36.08l22.88-13.64l29.48,53.02v24.86h-158.62V215.43z"/><path d="M2687.77,408.8c-22.59,0-39.82-4.77-51.7-14.3c-11.88-9.54-17.82-23.91-17.82-43.12 c0-18.92,6.02-33.52,18.04-43.78c12.02-10.27,29.18-15.4,51.48-15.4h24.64c22.29,0,39.42,5.09,51.37,15.29 c11.95,10.19,17.93,24.6,17.93,43.23c0,18.77-5.98,33.14-17.93,43.12c-11.96,9.97-29.08,14.96-51.37,14.96H2687.77z M2712.63,380.42c9.09,0,16.42-0.85,22-2.53c5.57-1.69,9.86-3.89,12.87-6.6c3-2.72,5.02-5.87,6.05-9.46 c1.02-3.6,1.54-7.3,1.54-11.11c0-3.67-0.52-7.3-1.54-10.89c-1.03-3.6-3.08-6.82-6.16-9.68s-7.41-5.17-12.98-6.93 c-5.58-1.76-12.83-2.64-21.78-2.64h-25.08c-9.1,0-16.43,0.91-22,2.75c-5.58,1.83-9.9,4.21-12.98,7.15 c-3.08,2.93-5.14,6.23-6.16,9.9c-1.03,3.66-1.54,7.33-1.54,11c0,3.81,0.51,7.48,1.54,11c1.02,3.52,3.04,6.6,6.05,9.24 c3,2.64,7.29,4.76,12.87,6.38c5.57,1.61,12.98,2.42,22.22,2.42H2712.63z"/><path d="M2687.77,550.04c-22.59,0-39.82-4.77-51.7-14.3c-11.88-9.54-17.82-23.91-17.82-43.12 c0-18.92,6.02-33.52,18.04-43.78c12.02-10.27,29.18-15.4,51.48-15.4h24.64c22.29,0,39.42,5.09,51.37,15.29 c11.95,10.19,17.93,24.6,17.93,43.23c0,18.77-5.98,33.14-17.93,43.12c-11.96,9.97-29.08,14.96-51.37,14.96H2687.77z M2712.63,521.66c9.09,0,16.42-0.85,22-2.53c5.57-1.69,9.86-3.89,12.87-6.6c3-2.71,5.02-5.87,6.05-9.46 c1.02-3.59,1.54-7.3,1.54-11.11c0-3.67-0.52-7.3-1.54-10.89c-1.03-3.59-3.08-6.82-6.16-9.68s-7.41-5.17-12.98-6.93 c-5.58-1.76-12.83-2.64-21.78-2.64h-25.08c-9.1,0-16.43,0.92-22,2.75c-5.58,1.83-9.9,4.21-12.98,7.15 c-3.08,2.93-5.14,6.23-6.16,9.9c-1.03,3.66-1.54,7.33-1.54,11c0,3.81,0.51,7.48,1.54,11c1.02,3.52,3.04,6.6,6.05,9.24 c3,2.64,7.29,4.76,12.87,6.38c5.57,1.61,12.98,2.42,22.22,2.42H2712.63z"/><path d="M2687.77,691.28c-22.59,0-39.82-4.77-51.7-14.3c-11.88-9.54-17.82-23.91-17.82-43.12 c0-18.92,6.02-33.52,18.04-43.78c12.02-10.27,29.18-15.4,51.48-15.4h24.64c22.29,0,39.42,5.09,51.37,15.29 c11.95,10.19,17.93,24.6,17.93,43.23c0,18.77-5.98,33.14-17.93,43.12c-11.96,9.97-29.08,14.96-51.37,14.96H2687.77z M2712.63,662.9 c9.09,0,16.42-0.85,22-2.53c5.57-1.69,9.86-3.89,12.87-6.6c3-2.72,5.02-5.87,6.05-9.46c1.02-3.6,1.54-7.3,1.54-11.11 c0-3.67-0.52-7.3-1.54-10.89c-1.03-3.6-3.08-6.82-6.16-9.68c-3.08-2.86-7.41-5.17-12.98-6.93c-5.58-1.76-12.83-2.64-21.78-2.64 h-25.08c-9.1,0-16.43,0.91-22,2.75c-5.58,1.83-9.9,4.21-12.98,7.15c-3.08,2.93-5.14,6.23-6.16,9.9c-1.03,3.66-1.54,7.33-1.54,11 c0,3.81,0.51,7.48,1.54,11c1.02,3.52,3.04,6.6,6.05,9.24c3,2.64,7.29,4.77,12.87,6.38c5.57,1.61,12.98,2.42,22.22,2.42H2712.63z"/></g><g id="change4_1"><circle fill="#003a5e" r="28" cx="2727" cy="778"/></g><g id="change5_1"><path fill="#c9c9c9" d="M1672.29 414.38H1714.34V557.28H1672.29z"/></g><g id="change5_2"><path fill="#c9c9c9" d="M1672.29 192.47H1714.34V335.37H1672.29z"/></g><g id="change5_3"><path fill="#c9c9c9" d="M1672.29 636.28H1714.34V779.18H1672.29z"/></g><g id="change5_4"><path fill="#c9c9c9" d="M1672.29 858.19H1714.34V1001.09H1672.29z"/></g><g id="change5_5"><path fill="#c9c9c9" d="M1672.29 1080.1H1714.34V1223H1672.29z"/></g></svg>